<svg width="276" height="49" viewBox="0 0 276 49" fill="none" xmlns="http://www.w3.org/2000/svg">
<path d="M34.1422 5.85781C30.3647 2.08031 25.3422 0 20 0C14.6578 0 9.63531 2.08031 5.85781 5.85781C2.08031 9.63531 0 14.6578 0 20C0 25.3422 2.08039 30.3646 5.85781 34.1422C9.63523 37.9198 14.6578 40 20 40C25.3422 40 30.3647 37.9197 34.1422 34.1422C37.9197 30.3647 40 25.3422 40 20C40 14.6578 37.9196 9.63539 34.1422 5.85781Z" fill="#33CC95"/>
<g clip-path="url(#clip0_35212_417)">
<path d="M20.5714 8V33.1429" stroke="white" stroke-width="2" stroke-linecap="round" stroke-linejoin="round"/>
<path d="M26.2857 12.5714H17.7143C16.6534 12.5714 15.636 12.9929 14.8859 13.743C14.1357 14.4931 13.7143 15.5106 13.7143 16.5714C13.7143 17.6323 14.1357 18.6497 14.8859 19.3999C15.636 20.15 16.6534 20.5714 17.7143 20.5714H23.4286C24.4894 20.5714 25.5069 20.9929 26.257 21.743C27.0072 22.4932 27.4286 23.5106 27.4286 24.5714C27.4286 25.6323 27.0072 26.6497 26.257 27.3999C25.5069 28.15 24.4894 28.5714 23.4286 28.5714H13.7143" stroke="white" stroke-width="2" stroke-linecap="round" stroke-linejoin="round"/>
</g>
<path d="M75.92 9.248V26H72.56V15.104L68.072 26H65.528L61.016 15.104V26H57.656V9.248H61.472L66.8 21.704L72.128 9.248H75.92ZM78.3779 19.304C78.3779 17.96 78.6419 16.768 79.1699 15.728C79.7139 14.688 80.4419 13.888 81.3539 13.328C82.2819 12.768 83.3139 12.488 84.4499 12.488C85.4419 12.488 86.3059 12.688 87.0419 13.088C87.7939 13.488 88.3939 13.992 88.8419 14.6V12.704H92.2259V26H88.8419V24.056C88.4099 24.68 87.8099 25.2 87.0419 25.616C86.2899 26.016 85.4179 26.216 84.4259 26.216C83.3059 26.216 82.2819 25.928 81.3539 25.352C80.4419 24.776 79.7139 23.968 79.1699 22.928C78.6419 21.872 78.3779 20.664 78.3779 19.304ZM88.8419 19.352C88.8419 18.536 88.6819 17.84 88.3619 17.264C88.0419 16.672 87.6099 16.224 87.0659 15.92C86.5219 15.6 85.9379 15.44 85.3139 15.44C84.6899 15.44 84.1139 15.592 83.5859 15.896C83.0579 16.2 82.6259 16.648 82.2899 17.24C81.9699 17.816 81.8099 18.504 81.8099 19.304C81.8099 20.104 81.9699 20.808 82.2899 21.416C82.6259 22.008 83.0579 22.464 83.5859 22.784C84.1299 23.104 84.7059 23.264 85.3139 23.264C85.9379 23.264 86.5219 23.112 87.0659 22.808C87.6099 22.488 88.0419 22.04 88.3619 21.464C88.6819 20.872 88.8419 20.168 88.8419 19.352ZM102.876 12.512C104.46 12.512 105.74 13.016 106.716 14.024C107.692 15.016 108.18 16.408 108.18 18.2V26H104.82V18.656C104.82 17.6 104.556 16.792 104.028 16.232C103.5 15.656 102.78 15.368 101.868 15.368C100.94 15.368 100.204 15.656 99.6596 16.232C99.1316 16.792 98.8676 17.6 98.8676 18.656V26H95.5076V12.704H98.8676V14.36C99.3156 13.784 99.8836 13.336 100.572 13.016C101.276 12.68 102.044 12.512 102.876 12.512ZM110.511 19.304C110.511 17.96 110.775 16.768 111.303 15.728C111.847 14.688 112.583 13.888 113.511 13.328C114.439 12.768 115.471 12.488 116.607 12.488C117.471 12.488 118.295 12.68 119.079 13.064C119.863 13.432 120.487 13.928 120.951 14.552V8.24H124.359V26H120.951V24.032C120.535 24.688 119.951 25.216 119.199 25.616C118.447 26.016 117.575 26.216 116.583 26.216C115.463 26.216 114.439 25.928 113.511 25.352C112.583 24.776 111.847 23.968 111.303 22.928C110.775 21.872 110.511 20.664 110.511 19.304ZM120.975 19.352C120.975 18.536 120.815 17.84 120.495 17.264C120.175 16.672 119.743 16.224 119.199 15.92C118.655 15.6 118.071 15.44 117.447 15.44C116.823 15.44 116.247 15.592 115.719 15.896C115.191 16.2 114.759 16.648 114.423 17.24C114.103 17.816 113.943 18.504 113.943 19.304C113.943 20.104 114.103 20.808 114.423 21.416C114.759 22.008 115.191 22.464 115.719 22.784C116.263 23.104 116.839 23.264 117.447 23.264C118.071 23.264 118.655 23.112 119.199 22.808C119.743 22.488 120.175 22.04 120.495 21.464C120.815 20.872 120.975 20.168 120.975 19.352ZM140.36 12.704L132.128 32.288H128.552L131.432 25.664L126.104 12.704H129.872L133.304 21.992L136.784 12.704H140.36ZM166.154 9.248V26H162.794V15.104L158.306 26H155.762L151.25 15.104V26H147.89V9.248H151.706L157.034 21.704L162.362 9.248H166.154ZM175.38 26.216C174.1 26.216 172.948 25.936 171.924 25.376C170.9 24.8 170.092 23.992 169.5 22.952C168.924 21.912 168.636 20.712 168.636 19.352C168.636 17.992 168.932 16.792 169.524 15.752C170.132 14.712 170.956 13.912 171.996 13.352C173.036 12.776 174.196 12.488 175.476 12.488C176.756 12.488 177.916 12.776 178.956 13.352C179.996 13.912 180.812 14.712 181.404 15.752C182.012 16.792 182.316 17.992 182.316 19.352C182.316 20.712 182.004 21.912 181.38 22.952C180.772 23.992 179.94 24.8 178.884 25.376C177.844 25.936 176.676 26.216 175.38 26.216ZM175.38 23.288C175.988 23.288 176.556 23.144 177.084 22.856C177.628 22.552 178.06 22.104 178.38 21.512C178.7 20.92 178.86 20.2 178.86 19.352C178.86 18.088 178.524 17.12 177.852 16.448C177.196 15.76 176.388 15.416 175.428 15.416C174.468 15.416 173.66 15.76 173.004 16.448C172.364 17.12 172.044 18.088 172.044 19.352C172.044 20.616 172.356 21.592 172.98 22.28C173.62 22.952 174.42 23.288 175.38 23.288ZM192.149 12.512C193.733 12.512 195.013 13.016 195.989 14.024C196.965 15.016 197.453 16.408 197.453 18.2V26H194.093V18.656C194.093 17.6 193.829 16.792 193.301 16.232C192.773 15.656 192.053 15.368 191.141 15.368C190.213 15.368 189.477 15.656 188.933 16.232C188.405 16.792 188.141 17.6 188.141 18.656V26H184.781V12.704H188.141V14.36C188.589 13.784 189.157 13.336 189.845 13.016C190.549 12.68 191.317 12.512 192.149 12.512ZM213.008 19.064C213.008 19.544 212.976 19.976 212.912 20.36H203.192C203.272 21.32 203.608 22.072 204.2 22.616C204.792 23.16 205.52 23.432 206.384 23.432C207.632 23.432 208.52 22.896 209.048 21.824H212.672C212.288 23.104 211.552 24.16 210.464 24.992C209.376 25.808 208.04 26.216 206.456 26.216C205.176 26.216 204.024 25.936 203 25.376C201.992 24.8 201.2 23.992 200.624 22.952C200.064 21.912 199.784 20.712 199.784 19.352C199.784 17.976 200.064 16.768 200.624 15.728C201.184 14.688 201.968 13.888 202.976 13.328C203.984 12.768 205.144 12.488 206.456 12.488C207.72 12.488 208.848 12.76 209.84 13.304C210.848 13.848 211.624 14.624 212.168 15.632C212.728 16.624 213.008 17.768 213.008 19.064ZM209.528 18.104C209.512 17.24 209.2 16.552 208.592 16.04C207.984 15.512 207.24 15.248 206.36 15.248C205.528 15.248 204.824 15.504 204.248 16.016C203.688 16.512 203.344 17.208 203.216 18.104H209.528ZM228.181 12.704L219.949 32.288H216.373L219.253 25.664L213.925 12.704H217.693L221.125 21.992L224.605 12.704H228.181Z" fill="white"/>
<defs>
<clipPath id="clip0_35212_417">
<rect width="27.4286" height="27.4286" fill="white" transform="translate(6.85715 6.85714)"/>
</clipPath>
</defs>
</svg>
